<?xml version="1.0" encoding="UTF-8"?> <svg xmlns="http://www.w3.org/2000/svg" viewBox="0 0 240 21.74"><path d="M14.25 10.39a4.848 4.848 0 0 0 2.82-4.53V5.8a4.72 4.72 0 0 0-1.48-3.57A7.889 7.889 0 0 0 9.97.37H0v20.99h10.23c4.85 0 8.04-1.92 8.04-5.76v-.06c0-2.82-1.54-4.23-4.02-5.16M4.61 4.43h4.67c2 0 3.1.78 3.1 2.16v.06c0 1.56-1.32 2.22-3.41 2.22H4.61V4.43Zm8.97 10.61c0 1.56-1.26 2.28-3.35 2.28H4.61V12.7h5.47c2.43 0 3.5.87 3.5 2.28v.06ZM39.19 13.87a6.525 6.525 0 0 0 4.61-6.51V7.3a6.53 6.53 0 0 0-1.84-4.8A8.706 8.706 0 0 0 35.7.37h-9.83v20.99h4.73v-6.72h3.72l4.61 6.72h5.53l-5.25-7.5ZM39 7.6c0 1.77-1.32 2.97-3.62 2.97h-4.79V4.54h4.7c2.3 0 3.72 1.02 3.72 3v.06ZM93.84 13.3 83.76.38H79.4v20.99h4.67V8.03l10.41 13.34h4.02V.38h-4.67V13.3ZM115.63.38h-8.39v20.99h8.38c6.76 0 11.42-4.59 11.42-10.5v-.06c0-5.91-4.67-10.44-11.42-10.44m6.49 10.56c0 3.72-2.61 6.27-6.48 6.27h-3.65V4.55h3.65c3.36-.21 6.26 2.34 6.47 5.7.01.21.02.42 0 .62v.06ZM176.41 15.1c0-3.66-2.46-5.19-6.82-6.3-3.71-.93-4.64-1.38-4.64-2.76v-.06c0-1.02.95-1.83 2.76-1.83 2.03.12 3.97.84 5.59 2.07l2.46-3.48c-2.28-1.78-5.1-2.72-7.98-2.67-4.39 0-7.52 2.52-7.52 6.33v.06c0 4.17 2.8 5.34 7.13 6.42 3.59.9 4.33 1.5 4.33 2.67v.06c0 1.23-1.17 1.98-3.1 1.98a9.987 9.987 0 0 1-6.42-2.55l-2.8 3.27a13.87 13.87 0 0 0 9.12 3.36c4.64 0 7.89-2.34 7.89-6.51v-.06ZM182.13 4.64h6.54v16.74h4.73V4.64h6.54V.38h-17.81v4.26ZM207.32.38h4.73v20.99h-4.73zM240 17.98l-3.01-2.97a7.813 7.813 0 0 1-5.65 2.46c-3.48-.03-6.27-2.88-6.24-6.36v-.3a6.283 6.283 0 0 1 6.03-6.53h.21c2.07.05 4.04.9 5.5 2.37l3.01-3.39c-2.24-2.22-5.32-3.4-8.48-3.24-5.96-.23-10.98 4.42-11.2 10.38v.53c-.04 5.92 4.72 10.76 10.64 10.8h.38c3.35.15 6.59-1.23 8.81-3.75M58.93.23l-9.21 21.14h4.68l5.06-11.84 1.58-3.75 2.85 6.81h-3.1l-1.74 4.08h6.54l1.96 4.71h4.95L63.29.23h-4.36ZM145.05.23h-4.36l-9.21 21.14h4.68l5.06-11.84 1.58-3.75 2.86 6.81h-3.1l-1.74 4.08h6.54l1.96 4.71h4.94L145.05.23Z" style="fill:#fff"></path></svg> 